<svg xmlns="http://www.w3.org/2000/svg" viewBox="0 0 78.78 78.28"><defs><style>.cls-1,.cls-2{fill:none;stroke:#e52037;stroke-linecap:round;stroke-linejoin:round;stroke-width:2.5px;}.cls-2{stroke-dasharray:1.51 4.03;}</style></defs><title>Risorsa 3</title><g id="Livello_2" data-name="Livello 2"><g id="Livello_3" data-name="Livello 3"><path class="cls-1" d="M28.35,39.61l-.72.24"/><path class="cls-2" d="M23.9,41.37C15.28,45.57,12,52.54,12.76,57.55A10.55,10.55,0,0,0,16,63.84a9.79,9.79,0,0,0,12.75-.57,8.83,8.83,0,0,0,2.57-5A10.63,10.63,0,0,0,31,53.45c-1.6-4.74-7-5.29-8.15-5.49-6.6-1.13-12.29,2.79-13.66,3.76a19.43,19.43,0,0,0-6.32,7.49c-2.81,6.05-1.38,12-.12,15.32"/><path class="cls-1" d="M3.55,76.37c.14.3.26.52.34.66"/><polyline class="cls-1" points="31.54 16.42 57.27 30.7 77.53 1.25 8.17 1.25 24.25 10.19"/><polyline class="cls-1" points="24.25 10.19 28.68 35.63 45.16 23.97"/><polyline class="cls-1" points="28.68 35.63 31.54 16.42 77.53 1.25 24.25 10.19"/></g></g></svg>