<svg xmlns="http://www.w3.org/2000/svg" viewBox="0 0 812.57 31.7"><defs><style>.cls-1{fill:#fff;}.cls-2{font-size:18px;fill:#011627;font-family:Raleway-SemiBold, Raleway;font-weight:600;}.cls-3{letter-spacing:-0.03em;}.cls-4{letter-spacing:-0.01em;}.cls-5{letter-spacing:-0.02em;}.cls-6{letter-spacing:-0.01em;}.cls-7{letter-spacing:-0.01em;}.cls-8{letter-spacing:-0.02em;}.cls-9{letter-spacing:-0.01em;}.cls-10{letter-spacing:-0.02em;}.cls-11{letter-spacing:-0.02em;}</style></defs><title>Risorsa 2</title><g id="Livello_2" data-name="Livello 2"><g id="Livello_1-2" data-name="Livello 1"><rect class="cls-1" width="99.22" height="31.7" rx="8.5"/><text class="cls-2" transform="translate(24.56 23.19)">HTM<tspan class="cls-3" x="40.12" y="0">L</tspan></text><rect class="cls-1" x="119.49" width="99.22" height="31.7" rx="8.5"/><text class="cls-2" transform="translate(151.95 22.61)">CSS</text><rect class="cls-1" x="237.43" width="99.22" height="31.7" rx="8.5"/><text class="cls-2" transform="translate(243 20.61)"><tspan class="cls-4">J</tspan><tspan class="cls-5" x="8.62" y="0">a</tspan><tspan class="cls-6" x="18.45" y="0">v</tspan><tspan x="28.01" y="0">aScri</tspan><tspan class="cls-7" x="70.31" y="0">p</tspan><tspan x="81.47" y="0">t</tspan></text><rect class="cls-1" x="357.78" width="99.22" height="31.7" rx="8.5"/><text class="cls-2" transform="translate(385.05 22.61)"><tspan class="cls-8">S</tspan><tspan class="cls-9" x="10.73" y="0">A</tspan><tspan x="22.7" y="0">SS</tspan></text><rect class="cls-1" x="476.25" width="99.22" height="31.7" rx="8.5"/><text class="cls-2" transform="translate(489.49 22.61)"><tspan class="cls-10">R</tspan><tspan x="11.59" y="0">eact.JS</tspan></text><rect class="cls-1" x="596.83" width="99.22" height="31.7" rx="8.5"/><text class="cls-2" transform="translate(614.64 22.61)"><tspan class="cls-4">N</tspan><tspan class="cls-11" x="13.64" y="0">e</tspan><tspan x="23.99" y="0">xt.JS</tspan></text><rect class="cls-1" x="713.34" width="99.22" height="31.7" rx="8.5"/><text class="cls-2" transform="translate(740.17 22.61)">Axios</text></g></g></svg>