<svg id="Livello_1" data-name="Livello 1" xmlns="http://www.w3.org/2000/svg" viewBox="0 0 841.89 595.28"><defs><style>.cls-1,.cls-12,.cls-16{font-size:18px;}.cls-1,.cls-10,.cls-12,.cls-16,.cls-4{font-family:Raleway-SemiBold, Raleway;font-weight:600;}.cls-2{letter-spacing:-0.01em;}.cls-3{letter-spacing:0em;}.cls-10,.cls-4{font-size:28px;}.cls-4,.cls-5{fill:#00cc64;}.cls-6{letter-spacing:-0.02em;}.cls-7{letter-spacing:0em;}.cls-8{letter-spacing:0em;}.cls-9{letter-spacing:-0.01em;}.cls-10,.cls-11{fill:#ffaa21;}.cls-12,.cls-16{letter-spacing:-0.01em;}.cls-13{letter-spacing:-0.06em;}.cls-14{letter-spacing:-0.03em;}.cls-15{fill:#424242;opacity:0.37;}.cls-16,.cls-17{fill:#fff;}</style></defs><title>Tavola disegno 1</title><text class="cls-1" transform="translate(113.06 216.75)">P<tspan class="cls-2" x="11.21" y="0">r</tspan><tspan x="17.78" y="0">e</tspan><tspan class="cls-3" x="28.49" y="0">s</tspan><tspan x="37.31" y="0">tazioni</tspan></text><text class="cls-4" transform="translate(142.96 151.78)">99</text><path class="cls-5" d="M202.5,146.51a42.52,42.52,0,1,1-64.58-36.36,0,0,0,0,1,0,0l1.09-.63a3.58,3.58,0,0,1,1.23-.22,3.62,3.62,0,0,1,3.62,3.62,3.58,3.58,0,0,1-1.18,2.67c-.44.24-.87.5-1.3.76a35.3,35.3,0,1,0,6.94-3.3l-.1,0a3.64,3.64,0,0,1-4.67-3.47,3.6,3.6,0,0,1,1.5-2.93c.65-.24,1.31-.47,2-.68a42.55,42.55,0,0,1,55.47,40.51Z"/><text class="cls-1" transform="translate(235.23 216.42)"><tspan class="cls-6">A</tspan><tspan class="cls-7" x="11.86" y="0">cc</tspan><tspan x="31.81" y="0">essibilità</tspan></text><text class="cls-4" transform="translate(271.58 151.45)">90</text><path class="cls-5" d="M331.12,146.18a42.52,42.52,0,1,1-64.64-36.32c.39-.24.79-.47,1.19-.7a3.68,3.68,0,0,1,1.2-.2,3.62,3.62,0,0,1,2.43,6.3c-.44.24-.87.5-1.3.76a35.43,35.43,0,1,0,22-5.11h-.05l-.7-.07h0a3.63,3.63,0,0,1,0-7.1c.71,0,1.41.1,2.11.18A42.51,42.51,0,0,1,331.12,146.18Z"/><text class="cls-1" transform="translate(360.74 215.92)">Be<tspan class="cls-3" x="22.86" y="0">s</tspan><tspan x="31.68" y="0">t p</tspan><tspan class="cls-8" x="54.04" y="0">r</tspan><tspan x="60.75" y="0">acti</tspan><tspan class="cls-7" x="91.93" y="0">c</tspan><tspan x="101.9" y="0">e</tspan></text><path class="cls-5" d="M417,102.17a42.52,42.52,0,1,0,42.52,42.51A42.52,42.52,0,0,0,417,102.17Zm0,78a35.44,35.44,0,1,1,35.44-35.44A35.44,35.44,0,0,1,417,180.12Z"/><text class="cls-4" transform="translate(394 150.95)">100</text><text class="cls-1" transform="translate(525.82 215.87)">S<tspan class="cls-9" x="11" y="0">E</tspan><tspan x="21.62" y="0">O</tspan></text><text class="cls-10" transform="translate(526.67 150.9)">99</text><path d="M510.24,134.18a3.64,3.64,0,0,1-.4,1.31C510,135.05,510.1,134.61,510.24,134.18Z"/><path class="cls-11" d="M589.65,148.39a42.52,42.52,0,1,1-83.38-11.8c.14-.49.29-1,.45-1.46a3.62,3.62,0,0,1,6.78,1.78c0,.12,0,.25,0,.37-.14.43-.28.87-.4,1.31A35.44,35.44,0,1,0,549.53,113c-.6,0-1.2-.07-1.81-.07a3.62,3.62,0,0,1,.68-7.07h0l1.08,0A42.5,42.5,0,0,1,589.65,148.39Z"/><path d="M546.06,102.18l-1.08-.05.35,0A3.54,3.54,0,0,1,546.06,102.18Z"/><text class="cls-12" transform="translate(653.58 215.18)">P<tspan class="cls-13" x="11.02" y="0">W</tspan><tspan class="cls-14" x="28.87" y="0">A</tspan></text><circle class="cls-15" cx="675.85" cy="148.4" r="42.52"/><text class="cls-16" transform="translate(653.58 132.69)">P<tspan class="cls-13" x="11.02" y="0">W</tspan><tspan class="cls-14" x="28.87" y="0">A</tspan></text><rect class="cls-17" x="659.81" y="147.64" width="27.66" height="5.53" rx="2.77"/></svg>