<svg xmlns="http://www.w3.org/2000/svg" viewBox="0 0 608.09 118.65"><defs><style>.cls-1,.cls-8{font-size:18px;}.cls-1,.cls-14,.cls-8{fill:#fff;}.cls-1,.cls-11,.cls-8{font-family:Raleway-SemiBold, Raleway;font-weight:600;}.cls-2{letter-spacing:-0.01em;}.cls-3{letter-spacing:0em;}.cls-4{letter-spacing:-0.02em;}.cls-5{letter-spacing:0em;}.cls-6{letter-spacing:0em;}.cls-7{letter-spacing:-0.01em;}.cls-8{letter-spacing:-0.01em;}.cls-9{letter-spacing:-0.06em;}.cls-10{letter-spacing:-0.03em;}.cls-11{font-size:28px;}.cls-11,.cls-12{fill:#00cc64;}.cls-13{fill:#424242;opacity:0.37;}</style></defs><title>Risorsa 8</title><g id="Livello_2" data-name="Livello 2"><g id="Livello_1-2" data-name="Livello 1"><text class="cls-1" transform="translate(0.36 114.64)">P<tspan class="cls-2" x="11.21" y="0">r</tspan><tspan x="17.78" y="0">e</tspan><tspan class="cls-3" x="28.49" y="0">s</tspan><tspan x="37.31" y="0">tazioni</tspan></text><text class="cls-1" transform="translate(122.53 114.31)"><tspan class="cls-4">A</tspan><tspan class="cls-5" x="11.86" y="0">cc</tspan><tspan x="31.81" y="0">essibilità</tspan></text><text class="cls-1" transform="translate(248.04 113.81)">Be<tspan class="cls-3" x="22.86" y="0">s</tspan><tspan x="31.68" y="0">t p</tspan><tspan class="cls-6" x="54.04" y="0">r</tspan><tspan x="60.75" y="0">acti</tspan><tspan class="cls-5" x="91.93" y="0">c</tspan><tspan x="101.9" y="0">e</tspan></text><text class="cls-1" transform="translate(413.11 113.76)">S<tspan class="cls-7" x="11" y="0">E</tspan><tspan x="21.62" y="0">O</tspan></text><text class="cls-8" transform="translate(540.88 113.06)">P<tspan class="cls-9" x="11.02" y="0">W</tspan><tspan class="cls-10" x="28.87" y="0">A</tspan></text><text class="cls-11" transform="translate(158.94 47.96)">98</text><path class="cls-12" d="M218.45,44.36a42.52,42.52,0,1,1-64.55-38h0L155,5.69a3.58,3.58,0,0,1,1.23-.22,3.62,3.62,0,0,1,3.62,3.62,3.48,3.48,0,0,1-.24,1.29A3.53,3.53,0,0,1,158,12.12l-.65.4a35.33,35.33,0,1,0,6.94-3.3l-.1,0a3.64,3.64,0,0,1-4.67-3.47A3.6,3.6,0,0,1,161,2.86c.65-.24,1.31-.47,2-.68a42.55,42.55,0,0,1,55.44,42.18Z"/><path class="cls-12" d="M434.43,3A42.52,42.52,0,1,0,477,45.52,42.52,42.52,0,0,0,434.43,3Zm0,77.95a35.44,35.44,0,1,1,35.44-35.44A35.44,35.44,0,0,1,434.43,81Z"/><text class="cls-11" transform="translate(411.4 51.79)">100</text><path d="M397.54,32.06a3.52,3.52,0,0,1-.4,1.31C397.26,32.93,397.4,32.49,397.54,32.06Z"/><path d="M433.36.07l-1.08,0,.35,0A3.54,3.54,0,0,1,433.36.07Z"/><circle class="cls-13" cx="563.15" cy="46.28" r="42.52"/><text class="cls-8" transform="translate(540.88 30.57)">P<tspan class="cls-9" x="11.02" y="0">W</tspan><tspan class="cls-10" x="28.87" y="0">A</tspan></text><rect class="cls-14" x="547.11" y="45.52" width="27.66" height="5.53" rx="2.77"/><text class="cls-11" transform="translate(287.62 47.92)">92</text><path class="cls-12" d="M347.16,42.65A42.52,42.52,0,1,1,282.52,6.33c.39-.24.79-.47,1.19-.7a3.52,3.52,0,0,1,1.34-.2,3.61,3.61,0,0,1,2.29,6.3c-.44.24-.87.5-1.3.76a35.43,35.43,0,1,0,22-5.11H308l-.7-.07h0a3.63,3.63,0,0,1,0-7.1c.71,0,1.41.1,2.11.18A42.51,42.51,0,0,1,347.16,42.65Z"/><text class="cls-11" transform="translate(30.26 48.96)">97</text><path class="cls-12" d="M89.8,42.69a42.52,42.52,0,1,1-66.61-35c.74-.51,1.5-1,2.27-1.46h0a3.67,3.67,0,0,1,.75-.08A3.76,3.76,0,0,1,30,9.87a3.72,3.72,0,0,1-.86,2.39h0c-.65.39-1.28.8-1.9,1.22A35.43,35.43,0,1,0,47.28,7.26,35,35,0,0,0,38.36,8.4q-1.32.33-2.61.78A3.81,3.81,0,0,1,33.64,2.4c.9-.3,1.8-.57,2.72-.81A42.54,42.54,0,0,1,89.8,42.69Z"/></g></g></svg>