<svg xmlns="http://www.w3.org/2000/svg" viewBox="0 0 608.09 119.48"><defs><style>.cls-1,.cls-8{font-size:18px;}.cls-1,.cls-14,.cls-8{fill:#fff;}.cls-1,.cls-11,.cls-8{font-family:Raleway-SemiBold, Raleway;font-weight:600;}.cls-2{letter-spacing:-0.01em;}.cls-3{letter-spacing:0em;}.cls-4{letter-spacing:-0.02em;}.cls-5{letter-spacing:0em;}.cls-6{letter-spacing:0em;}.cls-7{letter-spacing:-0.01em;}.cls-8{letter-spacing:-0.01em;}.cls-9{letter-spacing:-0.06em;}.cls-10{letter-spacing:-0.03em;}.cls-11{font-size:28px;}.cls-11,.cls-12{fill:#00cc64;}.cls-13{fill:#424242;opacity:0.37;}</style></defs><title>Risorsa 5</title><g id="Livello_2" data-name="Livello 2"><g id="Livello_1-2" data-name="Livello 1"><text class="cls-1" transform="translate(0.36 115.47)">P<tspan class="cls-2" x="11.21" y="0">r</tspan><tspan x="17.78" y="0">e</tspan><tspan class="cls-3" x="28.49" y="0">s</tspan><tspan x="37.31" y="0">tazioni</tspan></text><text class="cls-1" transform="translate(122.53 115.14)"><tspan class="cls-4">A</tspan><tspan class="cls-5" x="11.86" y="0">cc</tspan><tspan x="31.81" y="0">essibilità</tspan></text><text class="cls-1" transform="translate(248.04 114.64)">Be<tspan class="cls-3" x="22.86" y="0">s</tspan><tspan x="31.68" y="0">t p</tspan><tspan class="cls-6" x="54.04" y="0">r</tspan><tspan x="60.75" y="0">acti</tspan><tspan class="cls-5" x="91.93" y="0">c</tspan><tspan x="101.9" y="0">e</tspan></text><text class="cls-1" transform="translate(413.11 114.59)">S<tspan class="cls-7" x="11" y="0">E</tspan><tspan x="21.62" y="0">O</tspan></text><text class="cls-8" transform="translate(540.88 113.89)">P<tspan class="cls-9" x="11.02" y="0">W</tspan><tspan class="cls-10" x="28.87" y="0">A</tspan></text><text class="cls-11" transform="translate(158.94 48.79)">98</text><path class="cls-12" d="M218.45,45.19a42.52,42.52,0,1,1-64.55-38h0L155,6.52a3.58,3.58,0,0,1,1.23-.22,3.62,3.62,0,0,1,3.62,3.62,3.48,3.48,0,0,1-.24,1.29A3.56,3.56,0,0,1,158,13c-.22.12-.43.26-.65.39a35.33,35.33,0,1,0,6.94-3.3l-.1,0a3.64,3.64,0,0,1-4.67-3.47A3.6,3.6,0,0,1,161,3.69c.65-.24,1.31-.47,2-.68a42.55,42.55,0,0,1,55.44,42.18Z"/><path class="cls-12" d="M434.43,3.84A42.52,42.52,0,1,0,477,46.35,42.52,42.52,0,0,0,434.43,3.84Zm0,78a35.44,35.44,0,1,1,35.44-35.44A35.44,35.44,0,0,1,434.43,81.79Z"/><text class="cls-11" transform="translate(411.4 52.62)">100</text><path d="M397.54,32.9a3.64,3.64,0,0,1-.4,1.31C397.26,33.77,397.4,33.33,397.54,32.9Z"/><path d="M433.36.9,432.28.85l.35,0A3.54,3.54,0,0,1,433.36.9Z"/><circle class="cls-13" cx="563.15" cy="47.11" r="42.52"/><text class="cls-8" transform="translate(540.88 31.4)">P<tspan class="cls-9" x="11.02" y="0">W</tspan><tspan class="cls-10" x="28.87" y="0">A</tspan></text><rect class="cls-14" x="547.11" y="46.35" width="27.66" height="5.53" rx="2.77"/><text class="cls-11" transform="translate(287.62 48.75)">92</text><path class="cls-12" d="M347.16,43.48A42.52,42.52,0,1,1,282.52,7.16c.39-.24.79-.47,1.19-.7a3.52,3.52,0,0,1,1.34-.2,3.61,3.61,0,0,1,2.29,6.3c-.44.24-.87.5-1.3.76a35.43,35.43,0,1,0,22-5.11H308l-.7-.07h0a3.63,3.63,0,0,1,0-7.1c.71,0,1.41.1,2.11.18A42.51,42.51,0,0,1,347.16,43.48Z"/><text class="cls-11" transform="translate(30.25 47.71)">93</text><path class="cls-12" d="M89.8,42.44A42.52,42.52,0,1,1,25.16,6.12c.39-.24.79-.47,1.19-.7a3.68,3.68,0,0,1,1.2-.2A3.62,3.62,0,0,1,30,11.52c-.44.24-.87.5-1.3.76a35.43,35.43,0,1,0,22-5.11h0l-.7-.07h0a3.63,3.63,0,0,1,0-7.1c.71,0,1.41.1,2.11.18A42.51,42.51,0,0,1,89.8,42.44Z"/></g></g></svg>