<svg xmlns="http://www.w3.org/2000/svg" viewBox="0 0 608.39 115.18"><defs><style>.cls-1,.cls-14,.cls-8{font-size:18px;}.cls-1,.cls-11,.cls-14,.cls-8{font-family:Raleway-SemiBold, Raleway;font-weight:600;}.cls-2{letter-spacing:-0.01em;}.cls-3{letter-spacing:0em;}.cls-4{letter-spacing:-0.02em;}.cls-5{letter-spacing:0em;}.cls-6{letter-spacing:0em;}.cls-7{letter-spacing:-0.01em;}.cls-14,.cls-8{letter-spacing:-0.01em;}.cls-9{letter-spacing:-0.06em;}.cls-10{letter-spacing:-0.03em;}.cls-11{font-size:28px;}.cls-11,.cls-12{fill:#00cc64;}.cls-13{fill:#424242;opacity:0.37;}.cls-14,.cls-15{fill:#fff;}</style></defs><title>Risorsa 9</title><g id="Livello_2" data-name="Livello 2"><g id="Livello_1-2" data-name="Livello 1"><text class="cls-1" transform="translate(0.36 111.17)">P<tspan class="cls-2" x="11.21" y="0">r</tspan><tspan x="17.78" y="0">e</tspan><tspan class="cls-3" x="28.49" y="0">s</tspan><tspan x="37.31" y="0">tazioni</tspan></text><text class="cls-1" transform="translate(122.53 110.83)"><tspan class="cls-4">A</tspan><tspan class="cls-5" x="11.86" y="0">cc</tspan><tspan x="31.81" y="0">essibilità</tspan></text><text class="cls-1" transform="translate(248.04 110.34)">Be<tspan class="cls-3" x="22.86" y="0">s</tspan><tspan x="31.68" y="0">t p</tspan><tspan class="cls-6" x="54.04" y="0">r</tspan><tspan x="60.75" y="0">acti</tspan><tspan class="cls-5" x="91.93" y="0">c</tspan><tspan x="101.9" y="0">e</tspan></text><text class="cls-1" transform="translate(413.11 110.29)">S<tspan class="cls-7" x="11" y="0">E</tspan><tspan x="21.62" y="0">O</tspan></text><text class="cls-8" transform="translate(540.88 109.59)">P<tspan class="cls-9" x="11.02" y="0">W</tspan><tspan class="cls-10" x="28.87" y="0">A</tspan></text><text class="cls-11" transform="translate(157.45 48.79)">98</text><path class="cls-12" d="M217,45.19a42.52,42.52,0,1,1-64.54-38h0l1.09-.63a3.58,3.58,0,0,1,1.23-.22,3.62,3.62,0,0,1,3.62,3.62,3.69,3.69,0,0,1-.24,1.29A3.6,3.6,0,0,1,156.54,13l-.65.39a35.33,35.33,0,1,0,6.94-3.3l-.1,0a3.64,3.64,0,0,1-4.67-3.47,3.6,3.6,0,0,1,1.5-2.93c.65-.24,1.31-.47,2-.68A42.54,42.54,0,0,1,217,45.19Z"/><path class="cls-12" d="M433,3.84a42.52,42.52,0,1,0,42.52,42.51A42.52,42.52,0,0,0,433,3.84Zm0,78a35.44,35.44,0,1,1,35.44-35.44A35.44,35.44,0,0,1,433,81.79Z"/><text class="cls-11" transform="translate(409.91 52.63)">100</text><path d="M396.05,32.9a3.64,3.64,0,0,1-.4,1.31C395.77,33.77,395.91,33.33,396.05,32.9Z"/><path d="M431.87.9,430.79.85l.35,0A3.54,3.54,0,0,1,431.87.9Z"/><text class="cls-11" transform="translate(286.13 48.75)">92</text><path class="cls-12" d="M345.68,43.48A42.52,42.52,0,1,1,281,7.16c.39-.24.79-.47,1.19-.7a4,4,0,0,1,1.34-.2,3.62,3.62,0,0,1,2.29,6.3c-.44.24-.87.5-1.3.76a35.43,35.43,0,1,0,22-5.11h0l-.7-.07h0a3.63,3.63,0,0,1,0-7.1c.71,0,1.41.1,2.11.18A42.51,42.51,0,0,1,345.68,43.48Z"/><text class="cls-11" transform="translate(30.77 48.79)">97</text><path class="cls-12" d="M90.31,42.52a42.52,42.52,0,1,1-66.61-35C24.44,7,25.2,6.48,26,6h0a3.67,3.67,0,0,1,.75-.08A3.76,3.76,0,0,1,30.49,9.7a3.72,3.72,0,0,1-.86,2.39h0c-.65.39-1.28.8-1.9,1.22A35.43,35.43,0,1,0,47.79,7.09a35,35,0,0,0-8.92,1.14q-1.32.33-2.61.78a3.81,3.81,0,0,1-2.11-6.78c.9-.3,1.8-.57,2.72-.81a42.54,42.54,0,0,1,53.44,41.1Z"/><circle class="cls-13" cx="563.45" cy="46.36" r="42.52"/><text class="cls-14" transform="translate(541.18 30.65)">P<tspan class="cls-9" x="11.02" y="0">W</tspan><tspan class="cls-10" x="28.87" y="0">A</tspan></text><rect class="cls-15" x="547.4" y="45.6" width="27.66" height="5.53" rx="2.77"/></g></g></svg>