<svg xmlns="http://www.w3.org/2000/svg" viewBox="0 0 608.09 118.65"><defs><style>.cls-1,.cls-12,.cls-16{font-size:18px;}.cls-1,.cls-10,.cls-12,.cls-16,.cls-4{font-family:Raleway-SemiBold, Raleway;font-weight:600;}.cls-2{letter-spacing:-0.01em;}.cls-3{letter-spacing:0em;}.cls-10,.cls-4{font-size:28px;}.cls-4,.cls-5{fill:#00cc64;}.cls-6{letter-spacing:-0.02em;}.cls-7{letter-spacing:0em;}.cls-8{letter-spacing:0em;}.cls-9{letter-spacing:-0.01em;}.cls-10,.cls-11{fill:#ffaa21;}.cls-12,.cls-16{letter-spacing:-0.01em;}.cls-13{letter-spacing:-0.06em;}.cls-14{letter-spacing:-0.03em;}.cls-15{fill:#424242;opacity:0.37;}.cls-16,.cls-17{fill:#fff;}</style></defs><title>Risorsa 4</title><g id="Livello_2" data-name="Livello 2"><g id="Livello_1-2" data-name="Livello 1"><text class="cls-1" transform="translate(0.36 114.64)">P<tspan class="cls-2" x="11.21" y="0">r</tspan><tspan x="17.78" y="0">e</tspan><tspan class="cls-3" x="28.49" y="0">s</tspan><tspan x="37.31" y="0">tazioni</tspan></text><text class="cls-4" transform="translate(30.26 49.67)">99</text><path class="cls-5" d="M89.8,44.39A42.52,42.52,0,1,1,25.22,8h0l1.09-.63a3.58,3.58,0,0,1,1.23-.22,3.62,3.62,0,0,1,3.62,3.62A3.58,3.58,0,0,1,30,13.46c-.44.24-.87.5-1.3.76a35.3,35.3,0,1,0,6.94-3.3l-.1,0a3.64,3.64,0,0,1-4.67-3.47,3.6,3.6,0,0,1,1.5-2.93c.65-.24,1.31-.47,2-.68A42.55,42.55,0,0,1,89.8,44.39Z"/><text class="cls-1" transform="translate(122.53 114.31)"><tspan class="cls-6">A</tspan><tspan class="cls-7" x="11.86" y="0">cc</tspan><tspan x="31.81" y="0">essibilità</tspan></text><text class="cls-4" transform="translate(158.87 49.33)">90</text><path class="cls-5" d="M218.42,44.06A42.52,42.52,0,1,1,153.78,7.74c.39-.24.79-.47,1.19-.7a3.68,3.68,0,0,1,1.2-.2,3.62,3.62,0,0,1,2.43,6.3c-.44.24-.87.5-1.3.76a35.43,35.43,0,1,0,22-5.11h-.05l-.7-.07h0a3.63,3.63,0,0,1,0-7.1c.71,0,1.41.1,2.11.18A42.51,42.51,0,0,1,218.42,44.06Z"/><text class="cls-1" transform="translate(248.04 113.81)">Be<tspan class="cls-3" x="22.86" y="0">s</tspan><tspan x="31.68" y="0">t p</tspan><tspan class="cls-8" x="54.04" y="0">r</tspan><tspan x="60.75" y="0">acti</tspan><tspan class="cls-7" x="91.93" y="0">c</tspan><tspan x="101.9" y="0">e</tspan></text><path class="cls-5" d="M304.34.05a42.52,42.52,0,1,0,42.52,42.51A42.52,42.52,0,0,0,304.34.05Zm0,78a35.44,35.44,0,1,1,35.44-35.44A35.44,35.44,0,0,1,304.34,78Z"/><text class="cls-4" transform="translate(281.3 48.84)">100</text><text class="cls-1" transform="translate(413.11 113.76)">S<tspan class="cls-9" x="11" y="0">E</tspan><tspan x="21.62" y="0">O</tspan></text><text class="cls-10" transform="translate(413.97 48.79)">99</text><path d="M397.54,32.06a3.52,3.52,0,0,1-.4,1.31C397.26,32.93,397.4,32.49,397.54,32.06Z"/><path class="cls-11" d="M477,46.27a42.52,42.52,0,1,1-83.38-11.8c.14-.49.29-1,.45-1.46a3.62,3.62,0,0,1,6.78,1.78c0,.12,0,.25,0,.37-.14.43-.28.87-.4,1.31a35.44,35.44,0,1,0,36.45-25.56c-.6,0-1.2-.07-1.81-.07a3.62,3.62,0,0,1,.68-7.07h0l1.08,0A42.5,42.5,0,0,1,477,46.27Z"/><path d="M433.36.07l-1.08,0,.35,0A3.54,3.54,0,0,1,433.36.07Z"/><text class="cls-12" transform="translate(540.88 113.06)">P<tspan class="cls-13" x="11.02" y="0">W</tspan><tspan class="cls-14" x="28.87" y="0">A</tspan></text><circle class="cls-15" cx="563.15" cy="46.28" r="42.52"/><text class="cls-16" transform="translate(540.88 30.57)">P<tspan class="cls-13" x="11.02" y="0">W</tspan><tspan class="cls-14" x="28.87" y="0">A</tspan></text><rect class="cls-17" x="547.11" y="45.52" width="27.66" height="5.53" rx="2.77"/></g></g></svg>